<svg width="20" height="20" viewBox="0 0 20 20" fill="none" xmlns="http://www.w3.org/2000/svg">
<path d="M12.5714 6.65927H1.71428C0.761901 6.65927 0 7.36959 0 8.2575V18.4018C0 19.2675 0.761901 20 1.71428 20H12.5952C13.5237 20 14.3094 19.2897 14.3094 18.4018V8.2575C14.2856 7.36959 13.5237 6.65927 12.5714 6.65927ZM12.8571 18.3796C12.8571 18.5128 12.738 18.6238 12.5952 18.6238H1.71428C1.57142 18.6238 1.45237 18.5128 1.45237 18.3796V8.2575C1.45237 8.12431 1.57142 8.01332 1.71428 8.01332H12.5952C12.738 8.01332 12.8571 8.12431 12.8571 8.2575V18.3796Z" fill="#A6A6A6"/>
<path d="M18.2857 0H7.42863C6.47626 0 5.71436 0.710322 5.71436 1.59822V5.32741H7.14292V1.59822C7.14292 1.46504 7.26197 1.35405 7.40482 1.35405H18.2857C18.4286 1.35405 18.5476 1.46504 18.5476 1.59822V11.7425C18.5476 11.8757 18.4286 11.9867 18.2857 11.9867H15.7143V13.3185H18.2857C19.2143 13.3185 20 12.6082 20 11.7203V1.59822C20 0.710322 19.2381 0 18.2857 0Z" fill="#A6A6A6"/>
</svg>
