<svg
  width="12"
  height="12"
  viewBox="0 0 12 12"
  fill="none"
  xmlns="http://www.w3.org/2000/svg"
>
  <path
    d="M7.36364 4.33333V2.25C7.36364 1.91848 7.21997 1.60054 6.96424 1.36612C6.70851 1.1317 6.36166 1 6 1H2.36364C2.00198 1 1.65513 1.1317 1.3994 1.36612C1.14367 1.60054 1 1.91848 1 2.25V9.75C1 10.0815 1.14367 10.3995 1.3994 10.6339C1.65513 10.8683 2.00198 11 2.36364 11H6C6.36166 11 6.70851 10.8683 6.96424 10.6339C7.21997 10.3995 7.36364 10.0815 7.36364 9.75V7.66667M5.09091 4.33333L3.27273 6M3.27273 6L5.09091 7.66667M3.27273 6H11"
    stroke="black"
    strokeWidth="0.7"
    strokeLinecap="round"
    strokeLinejoin="round"
  />
</svg>