<svg width="91" height="16" viewBox="0 0 91 16" fill="none" xmlns="http://www.w3.org/2000/svg">
<path d="M22.4695 12.616V11.5937H22.4404C22.3528 11.7616 22.2361 11.9197 22.0903 12.0678C21.9541 12.216 21.7888 12.3444 21.5943 12.453C21.4096 12.5617 21.2005 12.6505 20.9671 12.7197C20.7435 12.7888 20.5052 12.8234 20.2524 12.8234C19.7662 12.8234 19.3529 12.7345 19.0125 12.5567C18.6819 12.3789 18.4096 12.1518 18.1957 11.8752C17.9915 11.5888 17.8408 11.2678 17.7435 10.9122C17.656 10.5468 17.6122 10.1764 17.6122 9.80111V5.23806H20.019V9.23814C20.019 9.44555 20.0336 9.64308 20.0628 9.83074C20.0919 10.0184 20.1454 10.1863 20.2232 10.3345C20.3107 10.4826 20.4226 10.6011 20.5587 10.69C20.6948 10.769 20.8747 10.8085 21.0984 10.8085C21.5165 10.8085 21.8326 10.6505 22.0465 10.3345C22.2702 10.0184 22.382 9.64802 22.382 9.22332V5.23806H24.7742V12.616H22.4695Z" fill="white"/>
<path d="M29.2414 2.88246C29.2414 3.07012 29.2025 3.2479 29.1247 3.4158C29.0566 3.57383 28.9594 3.71211 28.833 3.83063C28.7163 3.94915 28.5704 4.04298 28.3954 4.11211C28.2301 4.18125 28.055 4.21582 27.8703 4.21582C27.4813 4.21582 27.1555 4.08742 26.893 3.83063C26.6304 3.56396 26.4991 3.2479 26.4991 2.88246C26.4991 2.70468 26.5332 2.53678 26.6013 2.37875C26.6693 2.21084 26.7666 2.06763 26.893 1.94911C27.0194 1.83059 27.1653 1.73676 27.3306 1.66762C27.4959 1.58861 27.6758 1.5491 27.8703 1.5491C28.055 1.5491 28.2301 1.58367 28.3954 1.65281C28.5704 1.72195 28.7163 1.81577 28.833 1.9343C28.9594 2.05282 29.0566 2.19603 29.1247 2.36393C29.2025 2.52196 29.2414 2.6948 29.2414 2.88246ZM26.6742 12.616V5.23806H29.0664V12.616H26.6742Z" fill="white"/>
<path d="M35.9643 7.62329C35.8281 7.44551 35.6434 7.3023 35.41 7.19365C35.1766 7.08501 34.9384 7.03069 34.6953 7.03069C34.4424 7.03069 34.2139 7.08501 34.0097 7.19365C33.8055 7.29242 33.6304 7.4307 33.4846 7.60848C33.3387 7.77638 33.222 7.97392 33.1345 8.20108C33.0567 8.42825 33.0178 8.67023 33.0178 8.92702C33.0178 9.18382 33.0567 9.42579 33.1345 9.65296C33.2123 9.88013 33.3241 10.0826 33.47 10.2604C33.6256 10.4283 33.8055 10.5616 34.0097 10.6604C34.2236 10.7592 34.4619 10.8085 34.7244 10.8085C34.9675 10.8085 35.2058 10.7641 35.4392 10.6752C35.6823 10.5764 35.8768 10.4382 36.0226 10.2604L37.35 11.9049C37.0485 12.2012 36.6596 12.4333 36.1831 12.6012C35.7066 12.7691 35.2009 12.853 34.6661 12.853C34.0923 12.853 33.5575 12.7641 33.0616 12.5863C32.5656 12.4086 32.1329 12.1518 31.7634 11.816C31.4036 11.4703 31.1167 11.0555 30.9028 10.5715C30.6986 10.0875 30.5965 9.53938 30.5965 8.92702C30.5965 8.32454 30.6986 7.78132 30.9028 7.29736C31.1167 6.8134 31.4036 6.40352 31.7634 6.06771C32.1329 5.72202 32.5656 5.46029 33.0616 5.28251C33.5575 5.09485 34.0875 5.00102 34.6515 5.00102C34.9141 5.00102 35.1717 5.02571 35.4246 5.0751C35.6871 5.12448 35.9351 5.19362 36.1685 5.28251C36.4116 5.36152 36.6304 5.46523 36.8249 5.59362C37.0291 5.71214 37.2041 5.84548 37.35 5.99363L35.9643 7.62329Z" fill="white"/>
<path d="M46.1008 12.616H43.1398L40.7622 9.07517H40.7184V12.616H38.3117V1.41577H40.7184V8.23071H40.7622L43.0814 5.23806H45.9841L43.1835 8.57146L46.1008 12.616Z" fill="white"/>
<path d="M56.2053 4.85287C55.9913 4.57632 55.7093 4.35903 55.3592 4.201C55.0189 4.0331 54.6883 3.94915 54.3674 3.94915C54.2021 3.94915 54.0319 3.96396 53.8568 3.99359C53.6915 4.02322 53.5408 4.08248 53.4047 4.17137C53.2685 4.25039 53.1518 4.35903 53.0546 4.49731C52.9671 4.6257 52.9233 4.79361 52.9233 5.00102C52.9233 5.1788 52.9573 5.32695 53.0254 5.44547C53.1032 5.56399 53.2102 5.6677 53.3463 5.75659C53.4922 5.84548 53.6624 5.92943 53.8568 6.00845C54.0513 6.07758 54.2701 6.15166 54.5132 6.23067C54.8633 6.34919 55.228 6.48253 55.6072 6.63068C55.9865 6.76895 56.3317 6.95661 56.6429 7.19365C56.954 7.4307 57.2117 7.727 57.4159 8.08256C57.6201 8.42825 57.7223 8.86282 57.7223 9.38629C57.7223 9.98877 57.6104 10.5122 57.3868 10.9567C57.1728 11.3913 56.8811 11.7518 56.5116 12.0382C56.1421 12.3246 55.719 12.537 55.2426 12.6752C54.7661 12.8135 54.275 12.8827 53.7693 12.8827C53.0303 12.8827 52.3155 12.7543 51.6251 12.4975C50.9347 12.2308 50.361 11.8555 49.9039 11.3715L51.5376 9.68259C51.7904 9.99864 52.1211 10.2653 52.5295 10.4826C52.9476 10.69 53.3609 10.7937 53.7693 10.7937C53.9541 10.7937 54.134 10.774 54.309 10.7345C54.4841 10.695 54.6348 10.6308 54.7612 10.5419C54.8973 10.453 55.0043 10.3345 55.0821 10.1863C55.1599 10.0382 55.1988 9.86037 55.1988 9.65296C55.1988 9.45543 55.1502 9.28752 55.0529 9.14925C54.9557 9.01097 54.8147 8.88751 54.6299 8.77887C54.4549 8.66035 54.2312 8.55664 53.959 8.46775C53.6964 8.36899 53.3949 8.26528 53.0546 8.15664C52.724 8.04799 52.3982 7.91959 52.0773 7.77144C51.7661 7.62329 51.4841 7.43563 51.2313 7.20847C50.9882 6.97143 50.7888 6.68994 50.6332 6.36401C50.4874 6.0282 50.4144 5.62325 50.4144 5.14917C50.4144 4.56644 50.5311 4.06767 50.7645 3.65285C50.9979 3.23802 51.3042 2.89728 51.6835 2.6306C52.0627 2.36393 52.4906 2.17134 52.9671 2.05282C53.4436 1.92442 53.9249 1.86022 54.4111 1.86022C54.9946 1.86022 55.5878 1.96886 56.1907 2.18615C56.8033 2.40344 57.3381 2.72443 57.7952 3.14913L56.2053 4.85287Z" fill="white"/>
<path d="M64.2398 8.08256C64.2398 7.69737 64.1182 7.3665 63.8751 7.08995C63.6417 6.8134 63.2868 6.67513 62.8103 6.67513C62.5769 6.67513 62.363 6.71463 62.1685 6.79365C61.974 6.86278 61.8038 6.96155 61.658 7.08995C61.5121 7.21835 61.3954 7.37144 61.3079 7.54922C61.2204 7.71712 61.1718 7.8949 61.162 8.08256H64.2398ZM66.4423 9.01591C66.4423 9.11468 66.4423 9.21345 66.4423 9.31221C66.4423 9.41098 66.4375 9.50481 66.4277 9.5937H61.162C61.1815 9.80111 61.2398 9.98877 61.3371 10.1567C61.444 10.3246 61.5753 10.4727 61.7309 10.6011C61.8962 10.7196 62.0761 10.8135 62.2706 10.8826C62.4748 10.9517 62.6839 10.9863 62.8978 10.9863C63.2771 10.9863 63.598 10.9172 63.8605 10.7789C64.1231 10.6308 64.337 10.4431 64.5023 10.2159L66.1652 11.2826C65.8248 11.7863 65.3727 12.1765 64.8087 12.453C64.2544 12.7197 63.6077 12.853 62.8687 12.853C62.3241 12.853 61.8087 12.7691 61.3225 12.6012C60.8363 12.4234 60.4084 12.1715 60.0389 11.8456C59.6791 11.5098 59.3922 11.0999 59.1783 10.6159C58.9741 10.132 58.872 9.57888 58.872 8.95665C58.872 8.35417 58.9741 7.81095 59.1783 7.32699C59.3825 6.83315 59.6596 6.41833 60.0097 6.08252C60.3598 5.73684 60.7731 5.47016 61.2496 5.28251C61.726 5.09485 62.2414 5.00102 62.7957 5.00102C63.3306 5.00102 63.8216 5.09485 64.269 5.28251C64.7163 5.46029 65.1004 5.72202 65.4213 6.06771C65.7422 6.41339 65.9902 6.83315 66.1652 7.32699C66.35 7.82083 66.4423 8.3838 66.4423 9.01591Z" fill="white"/>
<path d="M72.6956 12.616V8.58627C72.6956 8.37886 72.6761 8.18133 72.6372 7.99367C72.6081 7.80601 72.5546 7.64304 72.4768 7.50477C72.399 7.35662 72.2872 7.24304 72.1413 7.16402C72.0052 7.07513 71.8301 7.03069 71.6162 7.03069C71.4023 7.03069 71.2126 7.07513 71.0473 7.16402C70.8917 7.24304 70.7605 7.35662 70.6535 7.50477C70.5465 7.65292 70.4639 7.82576 70.4055 8.0233C70.3569 8.21096 70.3326 8.40849 70.3326 8.6159V12.616H67.9258V5.23806H70.2451V6.2603H70.2742C70.3618 6.10228 70.4736 5.94919 70.6097 5.80103C70.7556 5.64301 70.9209 5.50967 71.1057 5.40103C71.3002 5.29238 71.5092 5.20349 71.7329 5.13436C71.9565 5.06522 72.1948 5.03065 72.4476 5.03065C72.9338 5.03065 73.3471 5.11954 73.6875 5.29732C74.0278 5.4751 74.3001 5.70721 74.5043 5.99363C74.7182 6.27018 74.869 6.59117 74.9565 6.95661C75.0537 7.32205 75.1024 7.68749 75.1024 8.05293V12.616H72.6956Z" fill="white"/>
<path d="M81.188 7.41588C80.9935 7.22822 80.765 7.07019 80.5024 6.9418C80.2399 6.8134 79.9627 6.7492 79.671 6.7492C79.4473 6.7492 79.2383 6.79365 79.0438 6.88254C78.859 6.97143 78.7666 7.12452 78.7666 7.3418C78.7666 7.54922 78.8687 7.69737 79.073 7.78626C79.2869 7.87515 79.6272 7.97392 80.094 8.08256C80.3663 8.14182 80.6386 8.22577 80.9108 8.33442C81.1928 8.44306 81.4457 8.58627 81.6693 8.76405C81.893 8.94184 82.0729 9.15912 82.209 9.41592C82.3452 9.67271 82.4132 9.97889 82.4132 10.3345C82.4132 10.7987 82.3209 11.1937 82.1361 11.5197C81.9513 11.8357 81.7082 12.0925 81.4068 12.29C81.1151 12.4876 80.7844 12.6308 80.4149 12.7197C80.0454 12.8086 79.6759 12.853 79.3063 12.853C78.7132 12.853 78.1297 12.7592 77.556 12.5715C76.992 12.374 76.5203 12.0876 76.1411 11.7123L77.483 10.2752C77.697 10.5122 77.9595 10.7098 78.2707 10.8678C78.5819 11.0258 78.9125 11.1048 79.2626 11.1048C79.4571 11.1048 79.6467 11.0604 79.8314 10.9715C80.0259 10.8727 80.1232 10.7048 80.1232 10.4678C80.1232 10.2406 80.0065 10.0727 79.7731 9.96408C79.5397 9.85543 79.1751 9.74185 78.6791 9.62333C78.4263 9.56407 78.1735 9.48505 77.9206 9.38629C77.6678 9.28752 77.4393 9.15418 77.2351 8.98628C77.0406 8.81838 76.8801 8.61096 76.7537 8.36405C76.6273 8.11713 76.5641 7.82083 76.5641 7.47514C76.5641 7.03069 76.6565 6.65537 76.8412 6.34919C77.026 6.03314 77.2642 5.77634 77.556 5.57881C77.8477 5.38127 78.1686 5.23806 78.5187 5.14917C78.8785 5.0504 79.2334 5.00102 79.5835 5.00102C80.128 5.00102 80.658 5.08991 81.1734 5.26769C81.6985 5.4356 82.141 5.69239 82.5008 6.03808L81.188 7.41588Z" fill="white"/>
<path d="M88.7974 8.08256C88.7974 7.69737 88.6759 7.3665 88.4328 7.08995C88.1994 6.8134 87.8445 6.67513 87.368 6.67513C87.1346 6.67513 86.9207 6.71463 86.7262 6.79365C86.5317 6.86278 86.3615 6.96155 86.2156 7.08995C86.0698 7.21835 85.9531 7.37144 85.8656 7.54922C85.778 7.71712 85.7294 7.8949 85.7197 8.08256H88.7974ZM91 9.01591C91 9.11468 91 9.21345 91 9.31221C91 9.41098 90.9951 9.50481 90.9854 9.5937H85.7197C85.7392 9.80111 85.7975 9.98877 85.8947 10.1567C86.0017 10.3246 86.133 10.4727 86.2886 10.6011C86.4539 10.7196 86.6338 10.8135 86.8283 10.8826C87.0325 10.9517 87.2416 10.9863 87.4555 10.9863C87.8347 10.9863 88.1556 10.9172 88.4182 10.7789C88.6808 10.6308 88.8947 10.4431 89.06 10.2159L90.7229 11.2826C90.3825 11.7863 89.9303 12.1765 89.3663 12.453C88.812 12.7197 88.1654 12.853 87.4263 12.853C86.8818 12.853 86.3664 12.7691 85.8801 12.6012C85.3939 12.4234 84.9661 12.1715 84.5965 11.8456C84.2367 11.5098 83.9499 11.0999 83.7359 10.6159C83.5317 10.132 83.4296 9.57888 83.4296 8.95665C83.4296 8.35417 83.5317 7.81095 83.7359 7.32699C83.9402 6.83315 84.2173 6.41833 84.5674 6.08252C84.9174 5.73684 85.3307 5.47016 85.8072 5.28251C86.2837 5.09485 86.7991 5.00102 87.3534 5.00102C87.8882 5.00102 88.3793 5.09485 88.8266 5.28251C89.2739 5.46029 89.658 5.72202 89.979 6.06771C90.2999 6.41339 90.5478 6.83315 90.7229 7.32699C90.9076 7.82083 91 8.3838 91 9.01591Z" fill="white"/>
<path d="M15.726 13.1059C15.726 14.6812 14.4636 16 12.8766 16C11.2896 16 10.0272 14.7178 10.0272 13.1059C10.0272 11.494 11.2896 10.2118 12.8766 10.2118C14.4636 10.2118 15.726 11.494 15.726 13.1059Z" fill="white"/>
<path d="M9.05328 13.0784C9.05328 10.917 10.7485 9.19519 12.8766 9.19519C13.2733 9.19519 13.634 9.26846 13.9947 9.37836C14.2111 8.71895 14.2833 8.0229 14.2833 7.29021C14.3193 3.26045 11.1092 0 7.14163 0C3.21013 0 0 3.26045 0 7.25358C0 11.2833 3.21013 14.5438 7.14163 14.5438C7.86301 14.5438 8.54832 14.4339 9.19756 14.2141C9.12542 13.8844 9.05328 13.4722 9.05328 13.0784ZM3.67902 7.24442C3.67902 5.3028 5.22998 3.72753 7.14163 3.72753C9.05328 3.72753 10.6042 5.3028 10.6042 7.24442C10.6042 9.18603 9.05328 10.7613 7.14163 10.7613C5.22998 10.8071 3.67902 9.23183 3.67902 7.24442Z" fill="white"/>
</svg>
