<svg width="208" height="36" viewBox="0 0 208 36" fill="none" xmlns="http://www.w3.org/2000/svg">
<path d="M51.1194 28.3953V26.0775H51.0526C50.8522 26.4582 50.5851 26.8165 50.2512 27.1525C49.9395 27.4884 49.5611 27.7795 49.1159 28.0258C48.6929 28.2722 48.2143 28.4737 47.68 28.6305C47.168 28.7873 46.6226 28.8656 46.0439 28.8656C44.9308 28.8656 43.9847 28.6641 43.2056 28.261C42.4487 27.8579 41.8254 27.3428 41.3357 26.7158C40.8682 26.0663 40.5231 25.3385 40.3005 24.5323C40.1002 23.7037 40 22.8639 40 22.0129V11.6667H45.5096V20.7364C45.5096 21.2067 45.543 21.6546 45.6098 22.0801C45.6765 22.5056 45.799 22.8863 45.9771 23.2222C46.1774 23.5581 46.4334 23.8269 46.7451 24.0284C47.0567 24.2076 47.4686 24.2972 47.9806 24.2972C48.9378 24.2972 49.6613 23.9388 50.151 23.2222C50.663 22.5056 50.919 21.6658 50.919 20.7028V11.6667H56.3952V28.3953H51.1194Z" fill="black"/>
<path d="M66.6216 6.32558C66.6216 6.75108 66.5326 7.15418 66.3545 7.53488C66.1986 7.8932 65.976 8.20672 65.6866 8.47545C65.4195 8.74419 65.0856 8.95693 64.6849 9.1137C64.3065 9.27046 63.9058 9.34884 63.4828 9.34884C62.5924 9.34884 61.8466 9.05771 61.2456 8.47545C60.6445 7.8708 60.344 7.15418 60.344 6.32558C60.344 5.92248 60.4219 5.54177 60.5777 5.18346C60.7336 4.80276 60.9562 4.47804 61.2456 4.2093C61.535 3.94057 61.8689 3.72782 62.2473 3.57106C62.6258 3.3919 63.0376 3.30233 63.4828 3.30233C63.9058 3.30233 64.3065 3.38071 64.6849 3.53747C65.0856 3.69423 65.4195 3.90698 65.6866 4.17571C65.976 4.44444 66.1986 4.76916 66.3545 5.14987C66.5326 5.50818 66.6216 5.90009 66.6216 6.32558ZM60.7447 28.3953V11.6667H66.2209V28.3953H60.7447Z" fill="black"/>
<path d="M82.0117 17.0749C81.7 16.6718 81.2771 16.3471 80.7428 16.1008C80.2085 15.8544 79.6631 15.7313 79.1066 15.7313C78.5278 15.7313 78.0047 15.8544 77.5372 16.1008C77.0697 16.3247 76.669 16.6382 76.3351 17.0413C76.0012 17.422 75.7341 17.8699 75.5337 18.385C75.3556 18.9001 75.2666 19.4488 75.2666 20.031C75.2666 20.6133 75.3556 21.1619 75.5337 21.677C75.7118 22.1921 75.9678 22.6512 76.3017 23.0543C76.6579 23.435 77.0697 23.7373 77.5372 23.9612C78.027 24.1852 78.5724 24.2972 79.1734 24.2972C79.7299 24.2972 80.2753 24.1964 80.8096 23.9948C81.3661 23.7709 81.8113 23.4574 82.1452 23.0543L85.1839 26.7829C84.4938 27.4548 83.6033 27.9811 82.5125 28.3618C81.4218 28.7425 80.2642 28.9328 79.0398 28.9328C77.7264 28.9328 76.5021 28.7313 75.3668 28.3282C74.2315 27.9251 73.2409 27.3428 72.3949 26.5814C71.5713 25.7976 70.9146 24.857 70.4248 23.7597C69.9574 22.6624 69.7236 21.4195 69.7236 20.031C69.7236 18.6649 69.9574 17.4332 70.4248 16.3359C70.9146 15.2386 71.5713 14.3092 72.3949 13.5478C73.2409 12.764 74.2315 12.1705 75.3668 11.7674C76.5021 11.3419 77.7153 11.1292 79.0064 11.1292C79.6075 11.1292 80.1974 11.1852 80.7762 11.2972C81.3772 11.4091 81.9449 11.5659 82.4792 11.7674C83.0357 11.9466 83.5366 12.1817 83.9818 12.4729C84.4493 12.7416 84.85 13.0439 85.1839 13.3798L82.0117 17.0749Z" fill="black"/>
<path d="M105.216 28.3953H98.4379L92.9951 20.3669H92.8949V28.3953H87.3854V3H92.8949V18.4522H92.9951L98.3044 11.6667H104.949L98.5381 19.2248L105.216 28.3953Z" fill="black"/>
<path d="M128.348 10.7933C127.858 10.1662 127.212 9.67356 126.411 9.31525C125.632 8.93454 124.875 8.74419 124.14 8.74419C123.762 8.74419 123.372 8.77778 122.972 8.84496C122.593 8.91214 122.248 9.04651 121.936 9.24806C121.625 9.42722 121.358 9.67356 121.135 9.98708C120.935 10.2782 120.834 10.6589 120.834 11.1292C120.834 11.5323 120.912 11.8682 121.068 12.137C121.246 12.4057 121.491 12.6408 121.803 12.8424C122.137 13.0439 122.526 13.2343 122.972 13.4134C123.417 13.5702 123.918 13.7382 124.474 13.9173C125.276 14.186 126.11 14.4884 126.979 14.8243C127.847 15.1378 128.637 15.5633 129.349 16.1008C130.062 16.6382 130.652 17.3101 131.119 18.1163C131.587 18.9001 131.82 19.8854 131.82 21.0724C131.82 22.4384 131.564 23.6253 131.052 24.6331C130.563 25.6184 129.895 26.4358 129.049 27.0853C128.203 27.7347 127.234 28.2162 126.144 28.5297C125.053 28.8432 123.929 29 122.771 29C121.079 29 119.443 28.7089 117.863 28.1266C116.282 27.522 114.969 26.671 113.922 25.5736L117.662 21.7442C118.241 22.4608 118.998 23.0655 119.933 23.5581C120.89 24.0284 121.836 24.2636 122.771 24.2636C123.194 24.2636 123.606 24.2188 124.007 24.1292C124.407 24.0396 124.752 23.8941 125.042 23.6925C125.353 23.491 125.598 23.2222 125.776 22.8863C125.954 22.5504 126.044 22.1473 126.044 21.677C126.044 21.2291 125.932 20.8484 125.71 20.5349C125.487 20.2214 125.164 19.9414 124.741 19.6951C124.341 19.4264 123.829 19.1912 123.205 18.9897C122.604 18.7657 121.914 18.5306 121.135 18.2842C120.378 18.0379 119.632 17.7468 118.898 17.4109C118.185 17.0749 117.54 16.6494 116.961 16.1344C116.405 15.5969 115.948 14.9587 115.592 14.2196C115.258 13.4582 115.091 12.5401 115.091 11.4651C115.091 10.1438 115.358 9.01292 115.893 8.07235C116.427 7.13178 117.128 6.35917 117.996 5.75452C118.864 5.14987 119.844 4.71318 120.935 4.44444C122.025 4.15332 123.127 4.00775 124.24 4.00775C125.576 4.00775 126.934 4.25409 128.314 4.74677C129.717 5.23945 130.941 5.96727 131.987 6.93023L128.348 10.7933Z" fill="black"/>
<path d="M146.74 18.1163C146.74 17.2429 146.462 16.4927 145.905 15.8656C145.371 15.2386 144.559 14.9251 143.468 14.9251C142.934 14.9251 142.444 15.0146 141.999 15.1938C141.553 15.3506 141.164 15.5745 140.83 15.8656C140.496 16.1568 140.229 16.5039 140.029 16.907C139.828 17.2877 139.717 17.6908 139.695 18.1163H146.74ZM151.782 20.2326C151.782 20.4565 151.782 20.6804 151.782 20.9044C151.782 21.1283 151.771 21.3411 151.749 21.5426H139.695C139.739 22.0129 139.873 22.4384 140.095 22.8191C140.34 23.1998 140.641 23.5357 140.997 23.8269C141.375 24.0956 141.787 24.3084 142.232 24.4651C142.7 24.6219 143.178 24.7003 143.668 24.7003C144.536 24.7003 145.271 24.5435 145.872 24.23C146.473 23.8941 146.963 23.4686 147.341 22.9535L151.148 25.3721C150.369 26.5142 149.334 27.3988 148.043 28.0258C146.774 28.6305 145.293 28.9328 143.601 28.9328C142.355 28.9328 141.175 28.7425 140.062 28.3618C138.949 27.9587 137.969 27.3876 137.123 26.6486C136.3 25.8872 135.643 24.9578 135.153 23.8605C134.686 22.7631 134.452 21.509 134.452 20.0982C134.452 18.7321 134.686 17.5004 135.153 16.4031C135.621 15.2834 136.255 14.3428 137.057 13.5814C137.858 12.7976 138.804 12.1929 139.895 11.7674C140.986 11.3419 142.166 11.1292 143.434 11.1292C144.659 11.1292 145.783 11.3419 146.807 11.7674C147.831 12.1705 148.71 12.764 149.445 13.5478C150.18 14.3316 150.747 15.2834 151.148 16.4031C151.571 17.5228 151.782 18.7993 151.782 20.2326Z" fill="black"/>
<path d="M166.097 28.3953V19.2584C166.097 18.7881 166.053 18.3402 165.964 17.9147C165.897 17.4892 165.775 17.1197 165.596 16.8062C165.418 16.4703 165.162 16.2127 164.828 16.0336C164.517 15.832 164.116 15.7313 163.626 15.7313C163.137 15.7313 162.703 15.832 162.324 16.0336C161.968 16.2127 161.667 16.4703 161.423 16.8062C161.178 17.1421 160.988 17.534 160.855 17.9819C160.744 18.4074 160.688 18.8553 160.688 19.3256V28.3953H155.178V11.6667H160.488V13.9845H160.554C160.755 13.6262 161.011 13.2791 161.322 12.9432C161.656 12.5848 162.035 12.2825 162.458 12.0362C162.903 11.7898 163.382 11.5883 163.894 11.4315C164.406 11.2748 164.951 11.1964 165.53 11.1964C166.643 11.1964 167.589 11.3979 168.368 11.801C169.147 12.2041 169.77 12.7304 170.238 13.3798C170.728 14.0069 171.073 14.7347 171.273 15.5633C171.496 16.3919 171.607 17.2205 171.607 18.0491V28.3953H166.097Z" fill="black"/>
<path d="M185.538 16.6047C185.093 16.1792 184.57 15.8208 183.969 15.5297C183.368 15.2386 182.733 15.093 182.066 15.093C181.554 15.093 181.075 15.1938 180.63 15.3953C180.207 15.5969 179.995 15.944 179.995 16.4367C179.995 16.907 180.229 17.2429 180.696 17.4444C181.186 17.646 181.965 17.8699 183.034 18.1163C183.657 18.2506 184.28 18.441 184.904 18.6873C185.549 18.9337 186.128 19.2584 186.64 19.6615C187.152 20.0646 187.564 20.5573 187.876 21.1395C188.187 21.7218 188.343 22.416 188.343 23.2222C188.343 24.2748 188.132 25.1705 187.709 25.9096C187.286 26.6262 186.729 27.2084 186.039 27.6563C185.371 28.1042 184.614 28.4289 183.768 28.6305C182.923 28.832 182.077 28.9328 181.231 28.9328C179.873 28.9328 178.537 28.7201 177.224 28.2946C175.933 27.8467 174.853 27.1972 173.985 26.3463L177.057 23.0879C177.547 23.6253 178.148 24.0732 178.86 24.4315C179.572 24.7898 180.329 24.969 181.131 24.969C181.576 24.969 182.01 24.8682 182.433 24.6667C182.878 24.4427 183.101 24.062 183.101 23.5245C183.101 23.0095 182.834 22.6288 182.299 22.3824C181.765 22.1361 180.93 21.8786 179.795 21.6098C179.216 21.4755 178.637 21.2963 178.059 21.0724C177.48 20.8484 176.957 20.5461 176.489 20.1654C176.044 19.7847 175.677 19.3144 175.387 18.7545C175.098 18.1947 174.953 17.5228 174.953 16.739C174.953 15.7313 175.165 14.8803 175.588 14.186C176.011 13.4694 176.556 12.8872 177.224 12.4393C177.892 11.9914 178.626 11.6667 179.428 11.4651C180.251 11.2412 181.064 11.1292 181.865 11.1292C183.112 11.1292 184.325 11.3307 185.505 11.7339C186.707 12.1146 187.72 12.6968 188.543 13.4806L185.538 16.6047Z" fill="black"/>
<path d="M202.958 18.1163C202.958 17.2429 202.68 16.4927 202.123 15.8656C201.589 15.2386 200.776 14.9251 199.686 14.9251C199.151 14.9251 198.662 15.0146 198.216 15.1938C197.771 15.3506 197.382 15.5745 197.048 15.8656C196.714 16.1568 196.447 16.5039 196.246 16.907C196.046 17.2877 195.935 17.6908 195.912 18.1163H202.958ZM208 20.2326C208 20.4565 208 20.6804 208 20.9044C208 21.1283 207.989 21.3411 207.967 21.5426H195.912C195.957 22.0129 196.09 22.4384 196.313 22.8191C196.558 23.1998 196.858 23.5357 197.215 23.8269C197.593 24.0956 198.005 24.3084 198.45 24.4651C198.918 24.6219 199.396 24.7003 199.886 24.7003C200.754 24.7003 201.489 24.5435 202.09 24.23C202.691 23.8941 203.181 23.4686 203.559 22.9535L207.366 25.3721C206.586 26.5142 205.551 27.3988 204.26 28.0258C202.991 28.6305 201.511 28.9328 199.819 28.9328C198.572 28.9328 197.393 28.7425 196.28 28.3618C195.167 27.9587 194.187 27.3876 193.341 26.6486C192.517 25.8872 191.861 24.9578 191.371 23.8605C190.904 22.7631 190.67 21.509 190.67 20.0982C190.67 18.7321 190.904 17.5004 191.371 16.4031C191.839 15.2834 192.473 14.3428 193.274 13.5814C194.076 12.7976 195.022 12.1929 196.113 11.7674C197.203 11.3419 198.383 11.1292 199.652 11.1292C200.876 11.1292 202.001 11.3419 203.025 11.7674C204.049 12.1705 204.928 12.764 205.663 13.5478C206.397 14.3316 206.965 15.2834 207.366 16.4031C207.789 17.5228 208 18.7993 208 20.2326Z" fill="black"/>
<path d="M35.9385 29.4883C35.9385 33.0327 33.0536 36 29.4268 36C25.8 36 22.915 33.1151 22.915 29.4883C22.915 25.8615 25.8 22.9766 29.4268 22.9766C33.0536 22.9766 35.9385 25.8615 35.9385 29.4883Z" fill="url(#paint0_linear_437_2)"/>
<path d="M20.6892 29.4264C20.6892 24.5632 24.5632 20.6892 29.4264 20.6892C30.3331 20.6892 31.1574 20.854 31.9817 21.1013C32.4762 19.6176 32.6411 18.0515 32.6411 16.403C32.7235 7.33601 25.3875 0 16.3205 0C7.336 0 0 7.33601 0 16.3206C0 25.3875 7.336 32.7235 16.3205 32.7235C17.9691 32.7235 19.5352 32.4762 21.0189 31.9817C20.854 31.2398 20.6892 30.3125 20.6892 29.4264ZM8.40756 16.2999C8.40756 11.9313 11.9519 8.38695 16.3205 8.38695C20.6892 8.38695 24.2335 11.9313 24.2335 16.2999C24.2335 20.6686 20.6892 24.2129 16.3205 24.2129C11.9519 24.316 8.40756 20.7716 8.40756 16.2999Z" fill="url(#paint1_linear_437_2)"/>
<defs>
<linearGradient id="paint0_linear_437_2" x1="29.4268" y1="22.9766" x2="29.4268" y2="36" gradientUnits="userSpaceOnUse">
<stop stop-color="#885DF1"/>
<stop offset="1" stop-color="#6610F2"/>
</linearGradient>
<linearGradient id="paint1_linear_437_2" x1="16.3209" y1="0" x2="16.3209" y2="32.7235" gradientUnits="userSpaceOnUse">
<stop stop-color="#885DF1"/>
<stop offset="1" stop-color="#6610F2"/>
</linearGradient>
</defs>
</svg>
