<svg
  width="13"
  height="12"
  viewBox="0 0 13 12"
  fill="none"
  xmlns="http://www.w3.org/2000/svg"
>
  <path
    d="M4.0625 3.8125H9.3125M4.0625 5.5625H6.6875M1 6.44333C1 7.37667 1.65508 8.18984 2.57908 8.32575C3.23767 8.42259 3.90325 8.49667 4.57583 8.54683C4.78 8.562 4.96667 8.66934 5.08042 8.83909L6.6875 11.25L8.29458 8.83909C8.35096 8.75524 8.4257 8.68534 8.51313 8.63471C8.60057 8.58407 8.69839 8.55402 8.79917 8.54683C9.46717 8.49696 10.1332 8.42322 10.7959 8.32575C11.7199 8.18984 12.375 7.37725 12.375 6.44275V2.93225C12.375 1.99775 11.7199 1.18517 10.7959 1.04925C9.43556 0.849584 8.06243 0.749568 6.6875 0.750001C5.29217 0.750001 3.92017 0.852085 2.57908 1.04925C1.65508 1.18517 1 1.99833 1 2.93225V6.44275V6.44333Z"
    stroke="black"
    strokeWidth="0.75"
    strokeLinecap="round"
    strokeLinejoin="round"
  />
</svg>